<svg xmlns="http://www.w3.org/2000/svg" width="512" height="443.152" viewBox="0.331 -0.001 512 443.152"><path d="M221.917 443.152a25.825 25.825 0 0 1-18.273-7.564S16.095 248.046 8.174 240.135a26.358 26.358 0 0 1-3.482-4.189c-6.854-10.252-5.511-23.92 3.211-32.639L203.644 7.574a25.8 25.8 0 0 1 28.152-5.603 25.842 25.842 0 0 1 15.955 23.873v88.28H486.49c14.271 0 25.841 11.57 25.841 25.841v163.231c0 14.271-11.57 25.841-25.841 25.841H247.751v88.273a25.833 25.833 0 0 1-15.955 23.872 25.607 25.607 0 0 1-9.879 1.97zM62.726 221.582L196.07 354.929v-51.732c0-14.271 11.57-25.841 25.841-25.841H460.65V165.813H221.911c-14.271 0-25.841-11.57-25.841-25.841V88.24L62.726 221.582z" fill="#FFF"/></svg>