<svg xmlns="http://www.w3.org/2000/svg" width="24" height="24" viewBox="0 0 24 24"><path fill="#fff" d="M24 2.5v19a2.5 2.5 0 0 1-2.5 2.5h-19A2.5 2.5 0 0 1 0 21.5v-6.068l5.139 2.063a3.623 3.623 0 0 0 3.533 2.85 3.624 3.624 0 0 0 3.598-3.264l4.641-3.394a4.844 4.844 0 1 0 0-9.687 4.847 4.847 0 0 0-4.846 4.801l-3.019 4.327a3.56 3.56 0 0 0-2.221.489L0 10.872V2.5A2.5 2.5 0 0 1 2.5 0h19A2.5 2.5 0 0 1 24 2.5M7.629 18.498c-.437-.179-.875-.354-1.313-.53a2.65 2.65 0 0 0 2.356 1.418c1.474 0 2.66-1.186 2.66-2.66a2.654 2.654 0 0 0-3.234-2.595l1.108.444a2.115 2.115 0 1 1-1.577 3.923m9.282-6.408a3.248 3.248 0 0 1-3.249-3.244c0-1.793 1.457-3.249 3.249-3.249s3.249 1.456 3.249 3.249a3.248 3.248 0 0 1-3.249 3.244m.013-.664a2.597 2.597 0 0 0 0-5.191 2.597 2.597 0 0 0 0 5.191"/></svg>